<svg xmlns="http://www.w3.org/2000/svg" width="94" height="37" viewBox="0 0 94 37">
    <path fill="#FFF" fill-rule="evenodd" d="M85.065 5.774c6.585 0 9.688 3.76 8.78 8.89l-2.422 13.75C90.287 34.684 86.768 37 80.599 37h-.643c-5.488 0-9.046-2.773-8.478-7.294a.508.508 0 0 1 .5-.417h4.988c-.303 1.747.946 2.963 3.595 2.963 3.368 0 4.769-1.558 5.147-3.723l.53-2.85c-1.438 1.14-2.99 1.786-6.017 1.786-5.223 0-7.91-3.609-7.04-8.585l.833-4.825c.946-5.432 4.087-8.28 11.05-8.28zm-68.382-2.78a.773.773 0 0 1 .75.96l-.578 2.322c3.474 1.141 5.163 4.123 4.515 7.817l-1.362 7.75c-.84 4.741-3.567 6.947-7.805 7.584l-.506 2.03a.773.773 0 0 1-.75.587H6.417a.773.773 0 0 1-.75-.96l.406-1.63c-4.162-.682-6.496-3.291-6.01-6.927l.075-.532c.53-4.14 3.33-6.572 9.878-6.572 2.498 0 4.352.38 5.222.874l.341-2.014c.416-2.203-.568-3.684-3.368-3.684-2.347 0-4.05.797-4.39 2.81h-5.45c.646-4.61 3.13-7.103 8.466-7.558l.566-2.27a.773.773 0 0 1 .751-.587h4.528zM33.204 0a.773.773 0 0 1 .762.906L32.8 7.598c1.438-1.064 3.027-1.824 5.942-1.824 5.676 0 7.91 3.799 7.115 8.32l-1.325 7.445c-.946 5.432-4.087 8.053-11.089 8.053-6.585 0-9.613-3.684-8.704-8.737L28.297.64A.773.773 0 0 1 29.06 0h4.145zm27.98 5.774c6.737 0 9.726 3.685 8.856 8.623l-.87 4.863H54.599l-.303 1.823c-.34 2.014.265 3.837 3.898 3.837 3.141 0 4.655-.912 4.996-2.811a.236.236 0 0 1 .231-.19h4.526c.366 0 .662.296.662.662l-.002.049-.005.049c-.795 4.482-3.936 6.913-10.862 6.913-6.85 0-9.802-3.76-8.931-8.585l1.21-7.028c1.022-5.47 4.164-8.205 11.165-8.205zM10.547 19.032c-2.99 0-4.315.912-4.693 3.039l-.076.38c-.416 2.127.946 3.077 3.633 3.077 2.763 0 4.428-1.292 4.769-3.115l.038-.342c.416-2.127-.568-3.04-3.671-3.04zm25.962-8.32c-3.104 0-4.542 1.596-4.958 3.951l-1.06 5.964c-.416 2.356.492 3.951 3.596 3.951 3.065 0 4.503-1.595 4.92-3.95l1.06-5.965c.416-2.355-.493-3.95-3.558-3.95zm48.026.152c-3.066 0-4.504 1.558-4.92 3.875l-.72 4.217c-.415 2.28.455 3.875 3.52 3.875 3.104 0 4.542-1.596 4.958-3.875l.72-4.217c.416-2.317-.493-3.875-3.558-3.875zm-23.805-.417c-3.368 0-4.844 1.595-5.26 3.912l-.19 1.178h9.045l.227-1.216c.417-2.43-.567-3.874-3.822-3.874z"/>
</svg>
