<svg xmlns="http://www.w3.org/2000/svg" width="40" height="40" viewBox="0 0 40 40">
    <g fill="none" fill-rule="evenodd">
        <path fill="#8A5CF7" d="M12.82 0h14.36c4.458 0 6.075.464 7.704 1.336a9.086 9.086 0 0 1 3.78 3.78C39.536 6.746 40 8.362 40 12.819v14.362c0 4.457-.464 6.074-1.336 7.703a9.086 9.086 0 0 1-3.78 3.78c-1.63.872-3.246 1.336-7.703 1.336H12.819c-4.457 0-6.074-.464-7.703-1.336a9.086 9.086 0 0 1-3.78-3.78C.464 33.254 0 31.638 0 27.181V12.819c0-4.457.464-6.074 1.336-7.703a9.086 9.086 0 0 1 3.78-3.78C6.746.464 8.362 0 12.819 0z"/>
        <path fill="#FFF" fill-rule="nonzero" d="M21.404 29.996V21.33h2.909l.435-3.377h-3.344v-2.156c0-.978.272-1.644 1.674-1.644h1.788v-3.021c-.31-.041-1.37-.133-2.606-.133-2.578 0-4.343 1.574-4.343 4.464v2.49h-2.916v3.377h2.916v8.665h3.487z"/>
    </g>
</svg>
