<svg xmlns="http://www.w3.org/2000/svg" width="40" height="40" viewBox="0 0 40 40">
    <g fill="none" fill-rule="evenodd">
        <path fill="#8A5CF7" d="M12.82 0h14.36c4.458 0 6.075.464 7.704 1.336a9.086 9.086 0 0 1 3.78 3.78C39.536 6.746 40 8.362 40 12.819v14.362c0 4.457-.464 6.074-1.336 7.703a9.086 9.086 0 0 1-3.78 3.78c-1.63.872-3.246 1.336-7.703 1.336H12.819c-4.457 0-6.074-.464-7.703-1.336a9.086 9.086 0 0 1-3.78-3.78C.464 33.254 0 31.638 0 27.181V12.819c0-4.457.464-6.074 1.336-7.703a9.086 9.086 0 0 1 3.78-3.78C6.746.464 8.362 0 12.819 0z"/>
        <path fill="#FFF" fill-rule="nonzero" d="M17.246 20.5c0-1.749 1.398-3.167 3.122-3.167 1.725 0 3.123 1.418 3.123 3.167 0 1.749-1.398 3.167-3.123 3.167-1.724 0-3.122-1.418-3.122-3.167m-1.688 0c0 2.694 2.154 4.878 4.81 4.878 2.657 0 4.811-2.184 4.811-4.878s-2.154-4.878-4.81-4.878c-2.657 0-4.811 2.184-4.811 4.878m8.687-5.072c0 .63.503 1.14 1.124 1.14.62.001 1.124-.509 1.125-1.139 0-.63-.503-1.14-1.124-1.14-.621 0-1.124.51-1.125 1.14m-7.661 12.804c-.914-.042-1.41-.197-1.74-.327a2.908 2.908 0 0 1-1.078-.71 2.935 2.935 0 0 1-.7-1.093c-.13-.334-.281-.838-.323-1.764-.045-1.001-.054-1.302-.054-3.839s.01-2.837.054-3.84c.042-.925.195-1.428.322-1.763.17-.444.374-.76.701-1.093.328-.333.64-.539 1.078-.71.33-.131.826-.285 1.74-.327.987-.046 1.284-.056 3.784-.056 2.501 0 2.798.01 3.786.056.914.042 1.41.197 1.74.326.438.172.75.379 1.078.711.328.332.53.65.7 1.093.13.334.281.838.323 1.764.045 1.002.054 1.302.054 3.84 0 2.536-.009 2.836-.054 3.838-.042.926-.195 1.43-.323 1.764-.17.444-.373.76-.7 1.092-.328.332-.64.538-1.078.711-.33.13-.826.285-1.74.327-.987.046-1.284.055-3.786.055-2.501 0-2.797-.01-3.784-.055m-.078-17.175c-.997.046-1.679.206-2.274.44a4.589 4.589 0 0 0-1.66 1.097 4.649 4.649 0 0 0-1.08 1.682c-.232.604-.39 1.295-.435 2.306C11.01 17.596 11 17.92 11 20.5s.01 2.904.057 3.917c.045 1.011.203 1.702.435 2.306.239.624.56 1.155 1.08 1.682a4.6 4.6 0 0 0 1.66 1.096c.596.235 1.277.395 2.274.441 1 .047 1.318.058 3.862.058 2.545 0 2.864-.01 3.863-.058.997-.046 1.678-.206 2.274-.44a4.601 4.601 0 0 0 1.66-1.097 4.661 4.661 0 0 0 1.08-1.682c.232-.604.39-1.295.435-2.306.046-1.014.056-1.337.056-3.917s-.01-2.904-.056-3.917c-.045-1.011-.203-1.702-.435-2.306a4.68 4.68 0 0 0-1.08-1.682 4.578 4.578 0 0 0-1.66-1.096c-.596-.235-1.277-.396-2.273-.441-1-.047-1.319-.058-3.863-.058s-2.864.01-3.863.058"/>
    </g>
</svg>
