<svg xmlns="http://www.w3.org/2000/svg" width="1440" height="900" viewBox="0 0 1440 900">
    <g fill="none" fill-rule="evenodd" stroke="#FFF" stroke-width="2.6" opacity=".1" transform="translate(-275 -43)">
        <path d="M711.996 0h122.326a10.402 10.402 0 0 1 10.396 10.675l-25.45 963.3A10.4 10.4 0 0 1 808.87 984.1h-135.05c-5.744 0-10.4-4.656-10.4-10.4 0-.137.002-.275.008-.412l38.175-963.3A10.4 10.4 0 0 1 711.996 0zM452.678 0h109.059c5.69 0 10.323 4.573 10.399 10.263l12.725 963.3c.076 5.743-4.519 10.46-10.262 10.536l-.137.001h-96.333a10.4 10.4 0 0 1-10.396-10.125l-25.45-963.3c-.153-5.742 4.379-10.52 10.12-10.671a10.4 10.4 0 0 1 .275-.004zM244.4 0h95.78c5.743 0 10.4 4.656 10.4 10.4 0 .137-.003.275-.008.412l-38.176 963.3a10.4 10.4 0 0 1-10.392 9.988H244.4c-5.744 0-10.4-4.656-10.4-10.4V10.4C234 4.656 238.656 0 244.4 0zM933.538 0h134.784c5.743 0 10.4 4.656 10.4 10.4 0 .092-.002.183-.004.275l-25.45 963.3a10.4 10.4 0 0 1-10.397 10.125h-96.607c-5.69 0-10.324-4.573-10.4-10.263l-12.725-963.3c-.076-5.743 4.519-10.46 10.262-10.536l.137-.001zM1154.82 0h160.36c5.744 0 10.4 4.656 10.4 10.4 0 .137-.003.275-.008.412l-38.176 963.3a10.4 10.4 0 0 1-10.392 9.988h-84.008a10.4 10.4 0 0 1-10.392-9.988l-38.175-963.3c-.228-5.74 4.24-10.576 9.98-10.804a10.4 10.4 0 0 1 .411-.008zM1414.129 0h70.742a10.4 10.4 0 0 1 10.397 10.125l25.45 963.3c.152 5.742-4.38 10.52-10.122 10.671-.091.003-.183.004-.274.004h-121.644c-5.743 0-10.4-4.656-10.4-10.4 0-.092.002-.183.004-.275l25.45-963.3A10.4 10.4 0 0 1 1414.13 0zM1622.264 0h96.607a10.4 10.4 0 0 1 10.397 10.125l25.45 963.3c.152 5.742-4.38 10.52-10.122 10.671-.091.003-.183.004-.274.004h-134.784c-5.743 0-10.4-4.656-10.4-10.4l.001-.137 12.726-963.3C1611.94 4.573 1616.573 0 1622.264 0z"/>
        <rect width="1787.5" height="117" x="152.1" y="62.4" rx="10.4"/>
        <rect width="1787.5" height="117" x="152.1" y="296.4" rx="10.4"/>
        <rect width="1787.5" height="117" x="152.1" y="530.4" rx="10.4"/>
        <rect width="1787.5" height="117" x="152.1" y="764.4" rx="10.4"/>
    </g>
</svg>
