<svg xmlns="http://www.w3.org/2000/svg" width="40" height="40" viewBox="0 0 40 40">
    <g fill="none" fill-rule="evenodd">
        <path fill="#8A5CF7" d="M12.82 0h14.36c4.458 0 6.075.464 7.704 1.336a9.086 9.086 0 0 1 3.78 3.78C39.536 6.746 40 8.362 40 12.819v14.362c0 4.457-.464 6.074-1.336 7.703a9.086 9.086 0 0 1-3.78 3.78c-1.63.872-3.246 1.336-7.703 1.336H12.819c-4.457 0-6.074-.464-7.703-1.336a9.086 9.086 0 0 1-3.78-3.78C.464 33.254 0 31.638 0 27.181V12.819c0-4.457.464-6.074 1.336-7.703a9.086 9.086 0 0 1 3.78-3.78C6.746.464 8.362 0 12.819 0z"/>
        <path fill="#FFF" fill-rule="nonzero" d="M24.11 11.004V11h1.06l.387.08c.259.052.493.12.704.205.21.084.414.182.612.295.197.112.375.227.536.344.159.115.302.237.428.367.125.13.32.164.585.1.265-.062.55-.15.857-.263.306-.112.608-.239.907-.38.3-.14.481-.23.547-.267l.102-.063.004-.007.02-.01.02-.01.02-.011.021-.011.004-.006.006-.005.006-.004.005-.006.02-.006.02-.005-.004.032-.006.032-.01.031-.01.032-.01.021-.01.021-.01.032a.754.754 0 0 0-.021.084 3.595 3.595 0 0 1-.194.422 5.303 5.303 0 0 1-.459.748 3.642 3.642 0 0 1-.493.574c-.147.13-.244.222-.292.274a.882.882 0 0 1-.173.148l-.102.07-.02.01-.02.01-.005.007-.006.004-.006.004-.004.007-.02.01-.021.01-.004.007-.006.004-.006.004-.004.007-.004.006-.007.004-.006.004-.004.007h.102l.571-.127a9.95 9.95 0 0 0 1.091-.305l.55-.19.062-.021.03-.01.02-.011.021-.011.02-.01.02-.011.042-.006.04-.005v.043l-.01.004-.01.006-.004.006-.006.005-.006.004-.004.006-.004.007-.007.004-.006.004-.004.006-.004.007-.006.004-.01.02-.01.022-.006.004-.26.359c-.17.236-.261.355-.275.358-.013.004-.032.025-.057.063-.023.04-.167.197-.432.47-.265.275-.525.519-.779.732a1.01 1.01 0 0 0-.387.793c-.004.312-.02.665-.047 1.059a13.84 13.84 0 0 1-.153 1.276c-.075.457-.19.973-.347 1.55a14.418 14.418 0 0 1-2.57 5.124c-.21.267-.476.568-.798.903-.324.333-.5.516-.53.548-.032.03-.165.146-.4.346-.234.2-.486.402-.755.603-.268.2-.514.366-.738.5-.224.133-.495.286-.811.457a9.504 9.504 0 0 1-1.024.481c-.367.148-.755.285-1.162.411-.408.127-.802.225-1.183.295-.38.07-.812.13-1.295.18l-.724.073V30h-1.325v-.01l-.173-.011a8.993 8.993 0 0 1-.286-.021 32.975 32.975 0 0 1-.846-.116c-.49-.07-.874-.14-1.152-.211-.279-.07-.693-.204-1.244-.4a11.879 11.879 0 0 1-1.413-.597c-.39-.2-.635-.327-.734-.38a5.167 5.167 0 0 1-.33-.194l-.184-.116-.004-.006-.006-.005-.006-.004-.004-.006-.02-.01-.021-.011-.004-.007-.006-.004-.007-.004-.004-.006-.004-.007-.006-.004H9v-.042l.02.004.02.007.093.01c.06.007.227.018.5.032a8.897 8.897 0 0 0 2.935-.348c.435-.12.835-.262 1.2-.426.362-.166.62-.29.774-.371.152-.08.385-.23.698-.447l.469-.327.004-.007.006-.004.006-.004.004-.006.004-.007.006-.004.006-.004.004-.006.02-.007.021-.004.004-.021.006-.021.006-.004.005-.007-.164-.01a73.97 73.97 0 0 1-.316-.021 2.975 2.975 0 0 1-.479-.095 4.497 4.497 0 0 1-.703-.253 5.364 5.364 0 0 1-.734-.401 3.62 3.62 0 0 1-.516-.386 9.114 9.114 0 0 1-.408-.43 4.252 4.252 0 0 1-.432-.576 5.234 5.234 0 0 1-.351-.68l-.17-.385-.01-.031-.01-.032-.006-.021-.004-.021.03.004.031.006.225.032c.15.021.384.028.703.021.32-.007.54-.021.663-.042.122-.021.197-.035.224-.042l.04-.01.052-.011.05-.01.005-.007.006-.004.006-.005.004-.006-.04-.01-.041-.011-.041-.01-.041-.011-.04-.01a3.651 3.651 0 0 1-.143-.043 7.672 7.672 0 0 1-.551-.232 4.166 4.166 0 0 1-.714-.39 4.96 4.96 0 0 1-.505-.415 5.895 5.895 0 0 1-.524-.587 4.24 4.24 0 0 1-.51-.833 5.173 5.173 0 0 1-.337-.906 5.048 5.048 0 0 1-.146-.875l-.037-.443.02.004.02.006.021.01.02.011.02.01.021.011.316.148c.21.098.473.183.785.253.313.07.5.11.561.116l.092.01h.183l-.004-.006-.006-.004-.006-.004-.004-.006-.004-.007-.006-.004-.006-.004-.005-.007-.02-.01-.02-.01-.004-.007-.006-.004-.007-.004-.004-.007-.02-.01-.02-.01-.005-.007a25.5 25.5 0 0 1-.175-.135 2.714 2.714 0 0 1-.35-.344c-.123-.14-.245-.288-.368-.443a3.428 3.428 0 0 1-.326-.495 6.104 6.104 0 0 1-.302-.67 4.882 4.882 0 0 1-.33-1.629c-.007-.267 0-.495.02-.685.02-.19.062-.404.123-.643.06-.24.15-.492.265-.76l.173-.4.01-.032.01-.031.007-.005.004-.006.004-.006.006-.004.006.004.004.006.004.006.006.005.006.004.004.006.005.006.006.005.01.02.01.022.006.004.004.006.276.317c.183.21.4.446.652.706.252.26.39.395.418.405a.302.302 0 0 1 .102.097c.04.052.177.176.408.373.23.197.533.426.907.686.374.26.789.516 1.244.77.455.252.945.48 1.468.685.524.204.89.337 1.101.4.211.064.571.144 1.081.243.51.098.894.162 1.152.19.258.028.435.044.53.048l.143.004-.004-.031-.006-.032-.041-.263a5.123 5.123 0 0 1-.04-.739 5 5 0 0 1 .07-.875c.048-.267.12-.537.215-.812.095-.274.188-.494.28-.66.092-.164.213-.352.362-.563a4.495 4.495 0 0 1 1.397-1.254 5.22 5.22 0 0 1 .846-.401c.258-.091.476-.151.653-.18a2.2 2.2 0 0 0 .265-.048z"/>
    </g>
</svg>
